<?xml version="1.0" encoding="UTF-8"?>
<svg version="1.1" xmlns="http://www.w3.org/2000/svg" width="206" height="206">
<path d="M0 0 C1.97871064 0.00492934 3.95742596 0.00822468 5.93614197 0.00996399 C10.06231821 0.01757088 14.18814344 0.03804078 18.31420898 0.0690918 C23.61395628 0.10889874 28.91347709 0.12674157 34.21335697 0.13640118 C39.26726881 0.14634263 44.321125 0.16623287 49.375 0.1875 C50.34266863 0.19089575 51.31033726 0.1942915 52.30732918 0.19779015 C55.02665066 0.20930479 57.74582492 0.22781022 60.46508789 0.2487793 C61.27799789 0.2514682 62.0909079 0.2541571 62.92845154 0.25692749 C68.47492809 0.31086559 68.47492809 0.31086559 69.58984375 1.42578125 C69.43743895 8.20331223 66.3309344 12.64721412 62.65234375 18.17578125 C62.10126953 19.02527344 61.55019531 19.87476562 60.98242188 20.75 C58.87530582 23.99132311 56.73431136 27.20907983 54.58984375 30.42578125 C51.54544099 30.7633916 48.69503135 30.91495568 45.64453125 30.9375 C44.3170134 30.9644268 44.3170134 30.9644268 42.962677 30.99189758 C40.13011471 31.0461711 37.29772249 31.07995044 34.46484375 31.11328125 C32.54685124 31.14643933 30.62888122 31.18092756 28.7109375 31.21679688 C24.00402869 31.30190718 19.29717181 31.36863662 14.58984375 31.42578125 C15.90702393 31.44036377 17.2242041 31.45494629 18.58129883 31.4699707 C23.46243613 31.52788838 28.34310893 31.60512161 33.22387695 31.68823242 C35.33740711 31.72151253 37.45102681 31.74953478 39.56469727 31.7722168 C42.60081181 31.80570597 45.6361035 31.85801889 48.671875 31.9140625 C49.61883743 31.92045242 50.56579987 31.92684235 51.54145813 31.9334259 C52.42214462 31.95322006 53.30283112 31.97301422 54.21020508 31.9934082 C54.98519852 32.00451126 55.76019196 32.01561432 56.55867004 32.02705383 C59.10984756 32.52786005 60.03324027 33.37446937 61.58984375 35.42578125 C61.49032491 40.15292618 58.76239125 43.89648139 56.33984375 47.80078125 C55.95699219 48.435 55.57414062 49.06921875 55.1796875 49.72265625 C52.50573997 54.10471073 49.6127356 58.27734456 46.58984375 62.42578125 C48.56984375 63.08578125 50.54984375 63.74578125 52.58984375 64.42578125 C52.11899254 70.2105247 50.48103308 74.09906184 47.52734375 79.05078125 C47.12539795 79.74083252 46.72345215 80.43088379 46.30932617 81.1418457 C45.48168697 82.55603416 44.64843495 83.96695292 43.80957031 85.37451172 C42.66451497 87.30020326 41.5429984 89.23775907 40.42578125 91.1796875 C35.29318447 99.88924844 31.36625037 104.93420746 21.58984375 108.42578125 C16.83357798 109.42535934 12.17826774 109.57969682 7.3371582 109.58691406 C6.53155457 109.59187897 5.72595093 109.59684387 4.89593506 109.60195923 C2.24832286 109.61648897 -0.3992296 109.62336434 -3.046875 109.62890625 C-4.89199321 109.63466146 -6.73711142 109.64041915 -8.58222961 109.6461792 C-12.44129717 109.6566603 -16.30034405 109.66252312 -20.15942383 109.66601562 C-25.10942407 109.67152084 -30.05915208 109.6956039 -35.00906658 109.72398758 C-38.81540236 109.74257869 -42.62167174 109.74781748 -46.42804909 109.7493515 C-48.25374669 109.75238216 -50.07944302 109.76042455 -51.90509605 109.77353668 C-54.45216333 109.79053759 -56.99855376 109.78873277 -59.5456543 109.78222656 C-60.3015535 109.79144135 -61.0574527 109.80065613 -61.83625793 109.81015015 C-66.96111893 109.76901439 -66.96111893 109.76901439 -69.40168762 107.90350342 C-69.73448227 107.4158551 -70.06727692 106.92820679 -70.41015625 106.42578125 C-68.85632337 100.50963495 -65.74516825 95.82409954 -62.47265625 90.73828125 C-61.66538086 89.45727539 -61.66538086 89.45727539 -60.84179688 88.15039062 C-56.019473 80.5809476 -56.019473 80.5809476 -53.41015625 78.42578125 C-51.34101868 78.0650177 -51.34101868 78.0650177 -48.9387207 78.08520508 C-48.03801346 78.08543167 -47.13730621 78.08565826 -46.20930481 78.08589172 C-44.75605049 78.10911751 -44.75605049 78.10911751 -43.2734375 78.1328125 C-41.78157173 78.13917976 -41.78157173 78.13917976 -40.25956726 78.14567566 C-37.0803225 78.16247972 -33.90170969 78.20013549 -30.72265625 78.23828125 C-28.56836852 78.25332584 -26.41407087 78.26701463 -24.25976562 78.27929688 C-18.97634658 78.31238881 -13.69329656 78.36260533 -8.41015625 78.42578125 C-9.05717499 78.41547379 -9.70419373 78.40516632 -10.37081909 78.39454651 C-17.08634847 78.28662375 -23.80173979 78.17201445 -30.51708984 78.0534668 C-33.02552409 78.01007222 -35.53398874 77.96840055 -38.04248047 77.9284668 C-41.64169493 77.87087368 -45.24075567 77.80714782 -48.83984375 77.7421875 C-49.9669577 77.72547501 -51.09407166 77.70876251 -52.25534058 77.69154358 C-53.29626862 77.67159836 -54.33719666 77.65165314 -55.40966797 77.63110352 C-56.32900116 77.61555923 -57.24833435 77.60001495 -58.19552612 77.58399963 C-60.41015625 77.42578125 -60.41015625 77.42578125 -62.41015625 76.42578125 C-62.16332401 69.29726602 -58.75304659 64.43767787 -54.97265625 58.55078125 C-54.37388672 57.58914062 -53.77511719 56.6275 -53.15820312 55.63671875 C-48.70295376 48.57218001 -48.70295376 48.57218001 -46.41015625 47.42578125 C-48.72015625 46.76578125 -51.03015625 46.10578125 -53.41015625 45.42578125 C-52.90613781 40.28366057 -51.76635904 36.59843994 -49.27734375 32.08203125 C-48.96241974 31.50924438 -48.64749573 30.93645752 -48.32302856 30.34631348 C-47.65764948 29.14337333 -46.98673198 27.94348138 -46.31054688 26.74658203 C-45.29260609 24.93901003 -44.29974886 23.11924212 -43.30859375 21.296875 C-38.31700678 12.25541633 -33.67886186 5.02874211 -23.76806641 1.24295044 C-16.03377914 -0.63923847 -7.91097755 -0.07554941 0 0 Z " fill="#B6E2DD" transform="translate(103.41015625,48.57421875)"/>
<path d="M0 0 C1.66530269 -0.00579505 3.33093802 0.02150611 4.99536133 0.07592773 C6.31507683 0.08510475 6.31507683 0.08510475 7.66145325 0.09446716 C10.46793486 0.12139222 13.27166204 0.19056159 16.07739258 0.25952148 C17.97775511 0.28104479 19.87814915 0.29995562 21.77856445 0.31616211 C35.67820296 0.48533186 35.67820296 0.48533186 36.88989258 1.69702148 C37.56798844 7.31674098 35.68349457 10.61595679 32.88989258 15.25952148 C32.48343506 15.95408447 32.07697754 16.64864746 31.65820312 17.36425781 C30.82020277 18.78968876 29.97602598 20.21150651 29.12573242 21.62963867 C27.97139596 23.56067801 26.84362921 25.50472031 25.72192383 27.45483398 C20.59358781 36.16407775 16.66321241 41.20655012 6.88989258 44.69702148 C2.13362681 45.69659957 -2.52168343 45.85093706 -7.36279297 45.8581543 C-8.16839661 45.8631192 -8.97400024 45.86808411 -9.80401611 45.87319946 C-12.45162831 45.88772921 -15.09918077 45.89460458 -17.74682617 45.90014648 C-19.59194438 45.9059017 -21.43706259 45.91165938 -23.28218079 45.91741943 C-27.14124835 45.92790054 -31.00029523 45.93376335 -34.859375 45.93725586 C-39.80937524 45.94276107 -44.75910325 45.96684413 -49.70901775 45.99522781 C-53.51535353 46.01381892 -57.32162291 46.01905771 -61.12800026 46.02059174 C-62.95369787 46.02362239 -64.77939419 46.03166478 -66.60504723 46.04477692 C-69.1521145 46.06177782 -71.69850493 46.05997301 -74.24560547 46.0534668 C-75.00150467 46.06268158 -75.75740387 46.07189636 -76.53620911 46.08139038 C-81.6610701 46.04025462 -81.6610701 46.04025462 -84.10163879 44.17474365 C-84.60083076 43.44327118 -84.60083076 43.44327118 -85.11010742 42.69702148 C-83.55627454 36.78087518 -80.44511942 32.09533978 -77.17260742 27.00952148 C-76.36533203 25.72851562 -76.36533203 25.72851562 -75.54174805 24.42163086 C-70.72382632 16.85909774 -70.72382632 16.85909774 -68.11010742 14.69702148 C-66.07461548 14.34971619 -66.07461548 14.34971619 -63.71801758 14.38818359 C-62.83344879 14.39486557 -61.94888 14.40154755 -61.0375061 14.40843201 C-60.08435516 14.43018997 -59.13120422 14.45194794 -58.14916992 14.47436523 C-57.16645111 14.48335342 -56.1837323 14.49234161 -55.17123413 14.50160217 C-52.02550238 14.53166508 -48.88052907 14.58144129 -45.73510742 14.63452148 C-42.59687767 14.68236915 -39.45884738 14.72572889 -36.32040405 14.75672913 C-34.36700623 14.7764587 -32.41367714 14.8060561 -30.46060181 14.84666443 C-25.85296992 14.89752698 -22.30733508 14.83737711 -18.11010742 12.69702148 C-15.44438727 12.20388652 -12.81195026 11.97178516 -10.11010742 11.69702148 C-9.73885742 10.64514648 -9.73885742 10.64514648 -9.36010742 9.57202148 C-5.37271237 0.40101286 -5.37271237 0.40101286 0 0 Z " fill="#333339" transform="translate(118.110107421875,112.302978515625)"/>
<path d="M0 0 C2.27817044 -0.00499054 4.55701653 0.05010483 6.83276367 0.15527344 C8.64196541 0.17506256 8.64196541 0.17506256 10.48771667 0.19525146 C14.32837379 0.25004758 18.1620618 0.38185743 22.00073242 0.51464844 C24.60155982 0.56126811 27.20247994 0.60298946 29.8034668 0.63964844 C34.5446229 0.72260574 39.28406658 0.82085767 44.0234375 0.9765625 C44.97495193 1.00752014 45.92646637 1.03847778 46.90681458 1.07037354 C49.18823242 1.26464844 49.18823242 1.26464844 51.18823242 2.26464844 C50.57125764 6.27498451 48.4213064 8.94887193 46.18823242 12.26464844 C45.7609082 13.43447266 45.7609082 13.43447266 45.32495117 14.62792969 C43.96344645 17.7860592 42.20811528 19.93593798 39.93823242 22.51464844 C39.19057617 23.38605469 38.44291992 24.25746094 37.67260742 25.15527344 C32.40746927 29.62567376 25.0680269 28.35492053 18.50073242 28.26464844 C16.62188385 28.23913793 14.74296766 28.21810558 12.86401367 28.20214844 C12.03812744 28.19054687 11.21224121 28.17894531 10.36132812 28.16699219 C8.00566089 28.17366158 8.00566089 28.17366158 5.18823242 29.26464844 C3.38283814 32.15180248 1.6909155 35.05318 0.11987305 38.07324219 C-2.7316263 42.96006933 -5.5269032 44.23968271 -10.88475037 45.70474243 C-16.17162909 46.71606383 -21.38880836 46.53420741 -26.74926758 46.37402344 C-27.95115723 46.34995422 -29.15304688 46.32588501 -30.39135742 46.30108643 C-32.9126851 46.24773172 -35.43386288 46.18680416 -37.95483398 46.11865234 C-41.82752006 46.01422366 -45.70018337 45.93235983 -49.57348633 45.85449219 C-52.02794267 45.79980024 -54.48237149 45.7438556 -56.93676758 45.68652344 C-58.09813232 45.66039978 -59.25949707 45.63427612 -60.45605469 45.60736084 C-61.52476807 45.57773254 -62.59348145 45.54810425 -63.69458008 45.51757812 C-64.6370459 45.49298523 -65.57951172 45.46839233 -66.55053711 45.4430542 C-68.81176758 45.26464844 -68.81176758 45.26464844 -70.81176758 44.26464844 C-70.03940181 34.65002632 -66.21853468 25.42132092 -59.72045898 18.25146484 C-50.96663072 12.27205789 -37.14963198 14.32639678 -27.0422821 15.10771179 C-25.30241914 15.2318994 -23.55603973 15.25687856 -21.81176758 15.26464844 C-21.15176758 14.60464844 -20.49176758 13.94464844 -19.81176758 13.26464844 C-18.75989258 13.28527344 -17.70801758 13.30589844 -16.62426758 13.32714844 C-12.68644035 12.70425897 -12.68644035 12.70425897 -11.35273743 9.79364014 C-10.86137802 8.79503967 -10.37001862 7.79643921 -9.86376953 6.76757812 C-7.04360155 2.16252614 -5.44082343 0.49235098 0 0 Z " fill="#71D0C4" transform="translate(111.811767578125,80.7353515625)"/>
<path d="M0 0 C3.63 0 7.26 0 11 0 C11 0.33 11 0.66 11 1 C12.31718018 1.01458252 13.63436035 1.02916504 14.99145508 1.04418945 C19.87259238 1.10210713 24.75326518 1.17934036 29.6340332 1.26245117 C31.74756336 1.29573128 33.86118306 1.32375353 35.97485352 1.34643555 C39.01096806 1.37992472 42.04625975 1.43223764 45.08203125 1.48828125 C46.02899368 1.49467117 46.97595612 1.5010611 47.95161438 1.50764465 C48.83230087 1.52743881 49.71298737 1.54723297 50.62036133 1.56762695 C51.39535477 1.57873001 52.17034821 1.58983307 52.96882629 1.60127258 C55.52000381 2.1020788 56.44339652 2.94868812 58 5 C57.90048116 9.72714493 55.1725475 13.47070014 52.75 17.375 C52.36714844 18.00921875 51.98429687 18.6434375 51.58984375 19.296875 C48.91589622 23.67892948 46.02289185 27.85156331 43 32 C44.98 32.66 46.96 33.32 49 34 C49 35.65 49 37.3 49 39 C48.34 37.68 47.68 36.36 47 35 C27.695 34.505 27.695 34.505 8 34 C10 30 10 30 13 29 C14.85027619 28.9751044 16.70162379 29.00914337 18.55078125 29.078125 C19.64197266 29.10390625 20.73316406 29.1296875 21.85742188 29.15625 C24.14957618 29.21844526 26.44135997 29.296418 28.73242188 29.390625 C35.65498769 29.68449749 35.65498769 29.68449749 41.62109375 26.671875 C42.40613281 25.79015625 43.19117188 24.9084375 44 24 C44.53109375 23.46375 45.0621875 22.9275 45.609375 22.375 C48.12791093 19.33895669 49.63605822 16.66559352 51 13 C52.65 10.03 54.3 7.06 56 4 C37.19 3.67 18.38 3.34 -1 3 C-0.67 2.01 -0.34 1.02 0 0 Z " fill="#C9F3EE" transform="translate(107,79)"/>
<path d="M0 0 C0.33 0 0.66 0 1 0 C1.33 2.31 1.66 4.62 2 7 C13.04807784 7.02313508 24.09614995 7.04092106 35.14424706 7.05181217 C40.27390776 7.05703844 45.40355194 7.06413146 50.53320312 7.07543945 C55.48039539 7.0862774 60.42757172 7.09227877 65.37477493 7.09487724 C67.26548132 7.09672985 69.15618681 7.10034733 71.04688644 7.10573006 C73.68801533 7.1129525 76.32907773 7.11399043 78.97021484 7.11352539 C79.75783707 7.11712067 80.54545929 7.12071594 81.35694885 7.12442017 C85.30741539 7.20105226 85.30741539 7.20105226 89 6 C89.99 6.66 90.98 7.32 92 8 C86.05710605 9.52560061 80.53499515 10.29520139 74.40673828 10.2746582 C73.60069656 10.27976913 72.79465485 10.28488007 71.96418762 10.29014587 C69.33281789 10.30390815 66.70171364 10.30309681 64.0703125 10.30078125 C62.22948104 10.30467251 60.38865047 10.30900806 58.54782104 10.31376648 C54.70665561 10.32119757 50.86558219 10.32095784 47.02441406 10.31567383 C42.09801571 10.30985054 37.17198984 10.32689373 32.24565315 10.3500185 C28.45217687 10.36472369 24.65879133 10.36563251 20.8652916 10.36250877 C19.04797496 10.36302253 17.23065332 10.36827049 15.41336441 10.37832069 C12.88095701 10.39062009 10.34928954 10.38393558 7.81689453 10.37231445 C7.06570847 10.37995819 6.3145224 10.38760193 5.54057312 10.39547729 C0.44865316 10.3436764 0.44865316 10.3436764 -1.98855591 8.47673035 C-2.32233246 7.98940933 -2.65610901 7.50208832 -3 7 C-1.125 1.125 -1.125 1.125 0 0 Z " fill="#87878C" transform="translate(36,148)"/>
<path d="M0 0 C0.33 0.66 0.66 1.32 1 2 C0.34 3.32 -0.32 4.64 -1 6 C19.79 6.33 40.58 6.66 62 7 C61.67 7.99 61.34 8.98 61 10 C54.6577776 12.71506324 48.14074826 12.18160169 41.35546875 12.01171875 C40.14933426 11.98906448 38.94319977 11.96641022 37.70051575 11.94306946 C35.16132423 11.89326163 32.6222288 11.83832214 30.08325195 11.77856445 C26.18390716 11.68741602 22.2845083 11.61291046 18.38476562 11.54101562 C15.91664659 11.490556 13.44854655 11.43915665 10.98046875 11.38671875 C9.22430489 11.35223885 9.22430489 11.35223885 7.43266296 11.31706238 C6.35426651 11.29066177 5.27587006 11.26426117 4.16479492 11.23706055 C3.21328049 11.21548386 2.26176605 11.19390717 1.28141785 11.17167664 C-1 11 -1 11 -3 10 C-2.25 3.375 -2.25 3.375 0 0 Z " fill="#A3EBE2" transform="translate(44,115)"/>
<path d="M0 0 C0.66 0 1.32 0 2 0 C-0.19461434 6.21807398 -3.33705002 11.4441942 -9 15 C-12.5 15.6875 -12.5 15.6875 -16 16 C-16.73022873 16.17099716 -17.46045746 16.34199432 -18.21281433 16.51817322 C-21.85295144 17.14745155 -25.41633194 17.0853299 -29.0949707 17.02172852 C-30.29575508 17.0073172 -30.29575508 17.0073172 -31.52079773 16.99261475 C-34.15588506 16.95974283 -36.79080042 16.91936587 -39.42578125 16.87890625 C-41.25708925 16.85459358 -43.08840353 16.8307506 -44.91972351 16.80735779 C-49.73169133 16.74463097 -54.54354729 16.67553217 -59.35540771 16.60510254 C-64.26878785 16.53431595 -69.18224708 16.46956083 -74.09570312 16.40429688 C-83.73055568 16.27543156 -93.36530083 16.13983397 -103 16 C-103 15.67 -103 15.34 -103 15 C-74.95 15 -46.9 15 -18 15 C-18 14.34 -18 13.68 -18 13 C-16.865625 12.67 -15.73125 12.34 -14.5625 12 C-8.93119576 9.91842861 -2.73194868 5.46389735 0 0 Z " fill="#434349" transform="translate(141,139)"/>
<path d="M0 0 C0.33 0.66 0.66 1.32 1 2 C0.0625 4.625 0.0625 4.625 -1 7 C-0.34 7 0.32 7 1 7 C1 7.99 1 8.98 1 10 C13.21 10 25.42 10 38 10 C37.67 10.99 37.34 11.98 37 13 C26.11 13 15.22 13 4 13 C4 12.67 4 12.34 4 12 C1.69 11.34 -0.62 10.68 -3 10 C-2.25 3.375 -2.25 3.375 0 0 Z " fill="#E1F5F2" transform="translate(53,84)"/>
<path d="M0 0 C0.66 0 1.32 0 2 0 C-0.2291773 6.31600235 -3.40106087 11.22071609 -9 15 C-11.3125 15.75 -11.3125 15.75 -13 16 C-12 13 -12 13 -9.875 11.375 C-6.46831763 8.56078413 -4.13953583 5.38694504 -1.55078125 1.828125 C-1.03902344 1.22484375 -0.52726563 0.6215625 0 0 Z " fill="#727278" transform="translate(141,139)"/>
<path d="M0 0 C0.33 0 0.66 0 1 0 C2.02388876 6.48462882 -1.57278653 10.83877972 -5 16 C-6.32527172 12.3702749 -5.66675274 10.37711779 -4.1875 6.875 C-3.83042969 6.00617188 -3.47335938 5.13734375 -3.10546875 4.2421875 C-2 2 -2 2 0 0 Z " fill="#56565C" transform="translate(154,114)"/>
<path d="M0 0 C0.66 0.66 1.32 1.32 2 2 C0.73918284 3.98556242 -0.53398424 5.96328737 -1.8125 7.9375 C-2.87404297 9.59072266 -2.87404297 9.59072266 -3.95703125 11.27734375 C-6 14 -6 14 -9 15 C-8.4887988 10.49656089 -6.82478642 8.12474574 -3.9375 4.6875 C-3.20402344 3.80449219 -2.47054687 2.92148438 -1.71484375 2.01171875 C-1.14894531 1.34785156 -0.58304688 0.68398437 0 0 Z " fill="#7BD6CB" transform="translate(114,110)"/>
<path d="M0 0 C0.71484375 1.609375 0.71484375 1.609375 1 4 C-0.43359375 7.015625 -0.43359375 7.015625 -2.4375 10.25 C-3.09621094 11.32765625 -3.75492188 12.4053125 -4.43359375 13.515625 C-4.95050781 14.33546875 -5.46742188 15.1553125 -6 16 C-6.96498182 12.94094199 -7.09929051 12.24038754 -5.8125 9.125 C-3.98803674 5.97937369 -2.06533495 2.99117476 0 0 Z " fill="#A3E9E0" transform="translate(162,86)"/>
<path d="M0 0 C0.33 0.99 0.66 1.98 1 3 C-4.75 7 -4.75 7 -7 7 C-6 4 -6 4 -3 2 C-2.01 2 -1.02 2 0 2 C0 1.34 0 0.68 0 0 Z " fill="#78787D" transform="translate(135,148)"/>
<path d="M0 0 C0.33 0 0.66 0 1 0 C1.36630156 3.93774177 1.30233203 5.56539771 -1 8.875 C-1.66 9.57625 -2.32 10.2775 -3 11 C-2.53199289 6.94393835 -2.12046792 3.53411321 0 0 Z " fill="#7B7B80" transform="translate(154,114)"/>
<path d="M0 0 C0.66 0 1.32 0 2 0 C0.90931332 3.77545388 0.0916909 6.47043472 -3 9 C-2.67 7.02 -2.34 5.04 -2 3 C-1.34 3 -0.68 3 0 3 C0 2.01 0 1.02 0 0 Z " fill="#85858A" transform="translate(146,130)"/>
<path d="M0 0 C0.33 0 0.66 0 1 0 C1 1.65 1 3.3 1 5 C-0.32 4.67 -1.64 4.34 -3 4 C-2.02727325 2.64664105 -1.0260734 1.31337396 0 0 Z " fill="#87E0D5" transform="translate(154,99)"/>
</svg>
